<?xml version="1.0" encoding="utf-8"?>
<!-- Generator: Adobe Illustrator 19.0.0, SVG Export Plug-In . SVG Version: 6.00 Build 0)  -->
<svg version="1.1" id="Layer_1" xmlns="http://www.w3.org/2000/svg" xmlns:xlink="http://www.w3.org/1999/xlink" x="0px" y="0px"
	 viewBox="-264.8 401.1 47.7 39.4" style="enable-background:new -264.8 401.1 47.7 39.4;" xml:space="preserve">
<style type="text/css">
	.st0{fill:#FFFFFF;}
</style>
<g>
	<title>quote_start</title>
	<desc>Created with Sketch.</desc>
	<path class="st0" d="M-233.6,418.9c0.6-4.3,3.8-7.7,7.9-8.5v-4.1c0,0-0.3,0-1,0.2c-6.3,1.4-11,7-11,13.7v15h17v-14l-10.9,0
		C-232.8,421.2-233.7,420.1-233.6,418.9z"/>
	<path class="st0" d="M-249.3,410.4v-4.1c0,0-0.3,0-1,0.2c-6.3,1.4-11,7-11,13.7v15h17v-14l-10.9,0c-1.2,0-2.1-1.1-2-2.3
		C-256.7,414.6-253.5,411.2-249.3,410.4z"/>
</g>
</svg>
